<svg xmlns="http://www.w3.org/2000/svg" width="200" height="200" viewBox="0 0 200 200" version="1.1"><path d="M 149.843 30.066 L 100.187 59.957 51.660 30.973 C 24.970 15.031, 2.428 1.718, 1.566 1.387 C 0.154 0.845, -0 7.804, -0 72.393 C -0 111.777, 0.260 144, 0.578 144 C 0.896 144, 6.521 140.792, 13.078 136.871 L 25 129.743 25 85.371 C 25 60.596, 25.387 41, 25.877 41 C 26.360 41, 42.961 50.675, 62.769 62.500 C 82.578 74.325, 99.395 83.995, 100.142 83.990 C 100.889 83.984, 123.550 70.777, 150.500 54.641 L 199.500 25.304 200.012 84.402 L 200.524 143.500 200.762 71.750 C 200.893 32.287, 200.662 0.039, 200.250 0.087 C 199.838 0.135, 177.155 13.625, 149.843 30.066 M 0.474 72.500 C 0.474 112.100, 0.598 128.154, 0.750 108.176 C 0.901 88.198, 0.901 55.798, 0.750 36.176 C 0.598 16.554, 0.474 32.900, 0.474 72.500" stroke="none" fill="#211b19" fill-rule="evenodd"/><path d="M -0 0.393 C -0 0.609, 0.698 1.054, 1.552 1.382 C 2.442 1.723, 2.843 1.555, 2.493 0.989 C 1.906 0.038, 0 -0.417, -0 0.393 M 25.460 86 C 25.460 110.475, 25.590 120.488, 25.749 108.250 C 25.908 96.013, 25.908 75.988, 25.749 63.750 C 25.590 51.513, 25.460 61.525, 25.460 86 M 187.500 62.385 L 175.500 69.634 175.240 114.317 C 175.097 138.893, 174.740 159, 174.448 159 C 174.155 159, 157.498 149.100, 137.432 137 C 117.367 124.900, 100.548 115, 100.058 115 C 99.567 115, 78.130 127.626, 52.420 143.059 C 26.709 158.491, 4.397 171.778, 2.837 172.584 L 0 174.051 0 187.026 C 0 194.162, 0.216 200, 0.481 200 C 0.745 200, 3.332 198.490, 6.231 196.645 C 12.286 192.790, 39.871 176.050, 74.315 155.328 C 87.414 147.447, 98.965 141, 99.984 141 C 101.573 141, 188.476 192.546, 196.271 198.113 C 197.796 199.201, 199.406 199.867, 199.849 199.593 C 200.505 199.188, 200.355 60.323, 199.695 56.318 C 199.587 55.665, 194.133 58.378, 187.500 62.385 M 0.392 187 C 0.392 194.425, 0.549 197.463, 0.742 193.750 C 0.934 190.037, 0.934 183.963, 0.742 180.250 C 0.549 176.537, 0.392 179.575, 0.392 187" stroke="none" fill="#f95e08" fill-rule="evenodd"/></svg>